# xmcd
#
# Track frame offsets: 
#        150
#        14771
#        28486
#        41934
#        54332
#        67821
#        81965
#        95406
#        109108
#        123663
#        137236
#        150749
#
# Disc length: 2184 seconds
#
# Revision: 0
# Processed by: cddbd v1.5.1PL0 Copyright (c) Steve Scherf et al.
# Submitted via: ExactAudioCopy v0.95a4
#
DISCID=aa08860c
DTITLE=John Lee Hooker - Sings Blues
DYEAR=1964
DGENRE=Blues
TTITLE0=Wandering Blues
TTITLE1=I'm Gonna Kill That Woman
TTITLE2=Heart Trouble Blues
TTITLE3=Don't You Remember Me
TTITLE4=Slim' Stomp
TTITLE5=The Numbers
TTITLE6=Nightmare Blues
TTITLE7=Moaning Blues
TTITLE8=Don't Go Baby
TTITLE9=Thinking Blues
TTITLE10=Late Last Night
TTITLE11=Devil's Jump
EXTD=
EXTT0=
EXTT1=
EXTT2=
EXTT3=
EXTT4=
EXTT5=
EXTT6=
EXTT7=
EXTT8=
EXTT9=
EXTT10=
EXTT11=
PLAYORDER=
